<svg width="2793" height="1000" viewBox="0 0 2793 1000" fill="none" xmlns="http://www.w3.org/2000/svg">
<path d="M563 456C657.441 456 734 532.489 734 626.843L701.551 659.298L668.315 630.472L672.5 626.843C672.5 559.706 630.668 512.322 563.47 512.322C496.272 512.322 441.797 566.747 441.797 633.883V701H392V626.843C392 532.489 468.559 456 563 456ZM660.964 699.892L659.857 701H587L627.206 666.127L660.964 699.892Z" fill="#E9B82D"/>
<path d="M622.669 533.637C628.899 537.7 634.53 542.453 639.526 547.814C649.57 558.593 657.166 571.963 661.89 587.391C660.35 592.655 659.13 598.132 658.243 603.802L658.244 603.803C657.754 606.935 657.366 610.127 657.081 613.373C657.032 613.936 656.985 614.501 656.942 615.067C656.87 616.013 656.806 616.964 656.752 617.919C656.585 620.852 656.5 623.827 656.5 626.843L742 701H669.143L668.034 699.892V699.891L602.038 633.883L595 626.843C595 626.587 595.003 626.332 595.004 626.076C595.007 625.453 595.012 624.83 595.021 624.208C595.042 622.881 595.076 621.558 595.126 620.238C595.134 620.03 595.143 619.822 595.151 619.614C595.167 619.249 595.183 618.884 595.2 618.52C595.209 618.344 595.219 618.168 595.228 617.992C595.245 617.655 595.261 617.318 595.28 616.981C595.295 616.731 595.311 616.481 595.326 616.231C595.348 615.871 595.371 615.511 595.396 615.151C595.408 614.969 595.421 614.786 595.434 614.604C595.455 614.302 595.477 614 595.5 613.698C595.52 613.435 595.54 613.173 595.562 612.91C595.583 612.645 595.605 612.38 595.628 612.115C595.65 611.852 595.674 611.588 595.697 611.325C595.723 611.038 595.749 610.751 595.776 610.465C595.798 610.237 595.82 610.009 595.843 609.781C595.876 609.443 595.912 609.105 595.947 608.767C595.967 608.579 595.986 608.391 596.007 608.204C596.051 607.802 596.096 607.4 596.143 606.999C596.156 606.885 596.169 606.771 596.183 606.657C596.24 606.167 596.3 605.677 596.362 605.188C596.371 605.119 596.38 605.049 596.389 604.979C596.439 604.587 596.491 604.195 596.544 603.803C596.562 603.666 596.58 603.529 596.599 603.392C597.784 594.763 599.616 586.341 602.041 578.174C602.066 578.09 602.09 578.006 602.115 577.922C602.242 577.497 602.371 577.074 602.501 576.65C602.529 576.558 602.557 576.465 602.586 576.373C607.306 561.103 614.111 546.746 622.669 533.637ZM766 456C860.441 456 937 532.489 937 626.843V701H887.203V633.883C887.203 566.747 832.728 512.322 765.53 512.322C743.316 512.322 723.874 517.501 707.799 526.859C697.041 511.337 683.847 497.629 668.77 486.286C696.376 467.189 729.88 456 766 456Z" fill="#E9B82D"/>
<circle cx="766" cy="359" r="60" fill="#E9B82D"/>
<circle cx="563" cy="359" r="60" fill="#E9B82D"/>
<path d="M1185.5 639V360.212H1290.04C1311.46 360.212 1329.43 364.205 1343.95 372.191C1358.56 380.177 1369.59 391.158 1377.03 405.134C1384.56 419.019 1388.33 434.809 1388.33 452.506C1388.33 470.384 1384.56 486.265 1377.03 500.15C1369.5 514.035 1358.38 524.971 1343.68 532.957C1328.98 540.852 1310.87 544.8 1289.36 544.8H1220.07V503.281H1282.56C1295.08 503.281 1305.33 501.103 1313.32 496.747C1321.31 492.391 1327.21 486.402 1331.02 478.778C1334.92 471.155 1336.87 462.398 1336.87 452.506C1336.87 442.614 1334.92 433.902 1331.02 426.369C1327.21 418.837 1321.26 412.984 1313.18 408.809C1305.2 404.544 1294.9 402.411 1282.28 402.411H1236V639H1185.5ZM1486.44 643.22C1473.19 643.22 1461.26 640.86 1450.64 636.141C1440.11 631.332 1431.76 624.253 1425.59 614.905C1419.51 605.558 1416.47 594.033 1416.47 580.329C1416.47 568.532 1418.65 558.776 1423.01 551.062C1427.36 543.348 1433.31 537.177 1440.84 532.549C1448.37 527.92 1456.86 524.426 1466.29 522.067C1475.82 519.617 1485.67 517.847 1495.83 516.758C1508.08 515.487 1518.02 514.353 1525.65 513.355C1533.27 512.266 1538.8 510.632 1542.25 508.454C1545.79 506.185 1547.56 502.691 1547.56 497.972V497.156C1547.56 486.901 1544.52 478.96 1538.44 473.333C1532.36 467.707 1523.6 464.893 1512.17 464.893C1500.1 464.893 1490.52 467.525 1483.45 472.789C1476.46 478.052 1471.74 484.269 1469.29 491.438L1423.28 484.904C1426.91 472.199 1432.9 461.581 1441.25 453.05C1449.6 444.429 1459.81 437.986 1471.88 433.72C1483.95 429.364 1497.29 427.186 1511.9 427.186C1521.97 427.186 1532 428.366 1541.98 430.726C1551.96 433.085 1561.08 436.987 1569.34 442.432C1577.6 447.787 1584.23 455.092 1589.22 464.349C1594.3 473.606 1596.84 485.176 1596.84 499.061V639H1549.47V610.277H1547.83C1544.84 616.085 1540.62 621.53 1535.17 626.612C1529.82 631.604 1523.06 635.642 1514.89 638.728C1506.81 641.723 1497.33 643.22 1486.44 643.22ZM1499.24 607.01C1509.13 607.01 1517.7 605.059 1524.96 601.157C1532.22 597.164 1537.81 591.9 1541.71 585.366C1545.7 578.832 1547.7 571.708 1547.7 563.994V539.355C1546.16 540.625 1543.52 541.805 1539.8 542.894C1536.17 543.983 1532.09 544.936 1527.55 545.753C1523.01 546.57 1518.52 547.296 1514.07 547.931C1509.63 548.566 1505.77 549.111 1502.5 549.564C1495.15 550.563 1488.57 552.196 1482.77 554.465C1476.96 556.734 1472.37 559.91 1469.02 563.994C1465.66 567.987 1463.98 573.16 1463.98 579.512C1463.98 588.588 1467.29 595.439 1473.92 600.068C1480.54 604.696 1488.98 607.01 1499.24 607.01ZM1646.39 639V429.909H1695.67V639H1646.39ZM1671.17 400.233C1663.36 400.233 1656.64 397.647 1651.02 392.474C1645.39 387.21 1642.58 380.903 1642.58 373.552C1642.58 366.111 1645.39 359.803 1651.02 354.63C1656.64 349.367 1663.36 346.735 1671.17 346.735C1679.06 346.735 1685.78 349.367 1691.31 354.63C1696.94 359.803 1699.75 366.111 1699.75 373.552C1699.75 380.903 1696.94 387.21 1691.31 392.474C1685.78 397.647 1679.06 400.233 1671.17 400.233ZM1746.34 639V429.909H1794.12V464.757H1796.3C1800.11 452.687 1806.65 443.385 1815.9 436.851C1825.25 430.226 1835.91 426.914 1847.89 426.914C1850.61 426.914 1853.65 427.05 1857.01 427.322C1860.46 427.504 1863.32 427.821 1865.59 428.275V473.606C1863.5 472.88 1860.19 472.244 1855.65 471.7C1851.2 471.065 1846.89 470.747 1842.72 470.747C1833.73 470.747 1825.66 472.698 1818.49 476.6C1811.41 480.412 1805.83 485.721 1801.75 492.527C1797.66 499.334 1795.62 507.184 1795.62 516.077V639H1746.34ZM2171.33 360.212H2221.83V542.35C2221.83 562.315 2217.11 579.875 2207.68 595.031C2198.33 610.186 2185.17 622.029 2168.2 630.56C2151.23 639 2131.4 643.22 2108.71 643.22C2085.93 643.22 2066.06 639 2049.09 630.56C2032.12 622.029 2018.96 610.186 2009.61 595.031C2000.26 579.875 1995.59 562.315 1995.59 542.35V360.212H2046.09V538.13C2046.09 549.746 2048.63 560.092 2053.72 569.167C2058.89 578.242 2066.15 585.366 2075.5 590.539C2084.84 595.621 2095.92 598.162 2108.71 598.162C2121.51 598.162 2132.58 595.621 2141.93 590.539C2151.36 585.366 2158.63 578.242 2163.71 569.167C2168.79 560.092 2171.33 549.746 2171.33 538.13V360.212ZM2274.55 717.409V429.909H2323.01V464.485H2325.87C2328.41 459.403 2331.99 454.003 2336.62 448.286C2341.25 442.478 2347.51 437.532 2355.41 433.448C2363.3 429.273 2373.38 427.186 2385.63 427.186C2401.78 427.186 2416.35 431.315 2429.33 439.574C2442.39 447.741 2452.74 459.857 2460.36 475.92C2468.08 491.892 2471.93 511.494 2471.93 534.727C2471.93 557.687 2468.17 577.198 2460.63 593.261C2453.1 609.324 2442.85 621.576 2429.87 630.016C2416.89 638.455 2402.19 642.675 2385.76 642.675C2373.79 642.675 2363.85 640.679 2355.95 636.686C2348.06 632.693 2341.7 627.883 2336.89 622.256C2332.18 616.539 2328.5 611.139 2325.87 606.057H2323.83V717.409H2274.55ZM2322.87 534.454C2322.87 547.976 2324.78 559.819 2328.59 569.984C2332.49 580.148 2338.07 588.088 2345.33 593.806C2352.69 599.432 2361.58 602.246 2372.02 602.246C2382.91 602.246 2392.03 599.342 2399.38 593.534C2406.73 587.635 2412.26 579.603 2415.98 569.439C2419.8 559.184 2421.7 547.523 2421.7 534.454C2421.7 521.477 2419.84 509.951 2416.12 499.878C2412.4 489.805 2406.86 481.909 2399.51 476.192C2392.16 470.475 2383 467.616 2372.02 467.616C2361.49 467.616 2352.55 470.384 2345.2 475.92C2337.85 481.456 2332.27 489.215 2328.45 499.197C2324.73 509.18 2322.87 520.932 2322.87 534.454Z" fill="white"/>
</svg>
