<svg width="545" height="402" viewBox="0 0 545 402" fill="none" xmlns="http://www.w3.org/2000/svg">
<path d="M171 157C265.441 157 342 233.489 342 327.843L309.551 360.298L276.315 331.472L280.5 327.843C280.5 260.706 238.668 213.322 171.47 213.322C104.272 213.322 49.797 267.747 49.7969 334.883V402H0V327.843C6.80331e-05 233.489 76.5593 157 171 157ZM268.964 400.892L267.857 402H195L235.206 367.127L268.964 400.892Z" fill="#E9B82D"/>
<path d="M230.669 234.637C236.899 238.7 242.53 243.453 247.526 248.814C257.57 259.593 265.166 272.963 269.89 288.391C268.35 293.655 267.13 299.132 266.243 304.802L266.244 304.803C265.754 307.935 265.366 311.127 265.081 314.373C265.032 314.936 264.985 315.501 264.942 316.067C264.87 317.013 264.806 317.964 264.752 318.919C264.585 321.852 264.5 324.827 264.5 327.843L350 402H277.143L276.034 400.892V400.891L210.038 334.883L203 327.843C203 327.587 203.003 327.332 203.004 327.076C203.007 326.453 203.012 325.83 203.021 325.208C203.042 323.881 203.076 322.558 203.126 321.238C203.134 321.03 203.143 320.822 203.151 320.614C203.167 320.249 203.183 319.884 203.2 319.52C203.209 319.344 203.219 319.168 203.228 318.992C203.245 318.655 203.261 318.318 203.28 317.981C203.295 317.731 203.311 317.481 203.326 317.231C203.348 316.871 203.371 316.511 203.396 316.151C203.408 315.969 203.421 315.786 203.434 315.604C203.455 315.302 203.477 315 203.5 314.698C203.52 314.435 203.54 314.173 203.562 313.91C203.583 313.645 203.605 313.38 203.628 313.115C203.65 312.852 203.674 312.588 203.697 312.325C203.723 312.038 203.749 311.751 203.776 311.465C203.798 311.237 203.82 311.009 203.843 310.781C203.876 310.443 203.912 310.105 203.947 309.767C203.967 309.579 203.986 309.391 204.007 309.204C204.051 308.802 204.096 308.4 204.143 307.999C204.156 307.885 204.169 307.771 204.183 307.657C204.24 307.167 204.3 306.677 204.362 306.188C204.371 306.119 204.38 306.049 204.389 305.979C204.439 305.587 204.491 305.195 204.544 304.803C204.562 304.666 204.58 304.529 204.599 304.392C205.784 295.763 207.616 287.341 210.041 279.174C210.066 279.09 210.09 279.006 210.115 278.922C210.242 278.497 210.371 278.074 210.501 277.65C210.529 277.558 210.557 277.465 210.586 277.373C215.306 262.103 222.111 247.746 230.669 234.637ZM374 157C468.441 157 545 233.489 545 327.843V402H495.203V334.883C495.203 267.747 440.728 213.322 373.53 213.322C351.316 213.322 331.874 218.501 315.799 227.859C305.041 212.337 291.847 198.629 276.77 187.286C304.376 168.189 337.88 157 374 157Z" fill="#E9B82D"/>
<circle cx="374" cy="60" r="60" fill="#E9B82D"/>
<circle cx="171" cy="60" r="60" fill="#E9B82D"/>
</svg>
