<svg width="1904" height="1904" viewBox="0 0 1904 1904" fill="none" xmlns="http://www.w3.org/2000/svg">
<g clip-path="url(#clip0_26_232)">
<path d="M631.349 402.039L480.203 552.608C329.012 703.221 328.543 947.882 479.156 1099.07C629.769 1250.26 874.43 1250.73 1025.62 1100.12L1176.77 949.55L1286.27 1059.47L1119.27 1225.84C906.786 1437.51 562.939 1436.85 351.267 1224.37C139.594 1011.88 140.253 668.036 352.737 456.363L519.739 290L631.349 402.039Z" fill="#E9B82D"/>
<path d="M729.453 957.133L880.6 806.564C1031.79 655.951 1276.45 656.419 1427.06 807.61C1577.68 958.801 1577.21 1203.46 1426.02 1354.07L1274.87 1504.64L1384.38 1614.57L1551.38 1448.21C1763.86 1236.53 1764.52 892.686 1552.85 680.202C1341.18 467.717 997.328 467.059 784.844 678.731L617.842 845.094L729.453 957.133Z" fill="#E9B82D"/>
</g>
<defs>
<clipPath id="clip0_26_232">
<rect width="1904" height="1904" fill="white"/>
</clipPath>
</defs>
</svg>
