<svg width="2793" height="1000" viewBox="0 0 2793 1000" fill="none" xmlns="http://www.w3.org/2000/svg">
<path d="M1295 224C1389.44 224 1466 300.489 1466 394.843L1433.55 427.298L1400.32 398.472L1404.5 394.843C1404.5 327.706 1362.67 280.322 1295.47 280.322C1228.27 280.322 1173.8 334.747 1173.8 401.883V469H1124V394.843C1124 300.489 1200.56 224 1295 224ZM1392.96 467.892L1391.86 469H1319L1359.21 434.127L1392.96 467.892Z" fill="#E9B82D"/>
<path d="M1354.67 301.637C1360.9 305.7 1366.53 310.453 1371.53 315.814C1381.57 326.593 1389.17 339.963 1393.89 355.391C1392.35 360.655 1391.13 366.132 1390.24 371.802L1390.24 371.803C1389.75 374.935 1389.37 378.127 1389.08 381.373C1389.03 381.936 1388.99 382.501 1388.94 383.067C1388.87 384.013 1388.81 384.964 1388.75 385.919C1388.58 388.852 1388.5 391.827 1388.5 394.843L1474 469H1401.14L1400.03 467.892V467.891L1334.04 401.883L1327 394.843C1327 394.587 1327 394.332 1327 394.076C1327.01 393.453 1327.01 392.83 1327.02 392.208C1327.04 390.881 1327.08 389.558 1327.13 388.238C1327.13 388.03 1327.14 387.822 1327.15 387.614C1327.17 387.249 1327.18 386.884 1327.2 386.52C1327.21 386.344 1327.22 386.168 1327.23 385.992C1327.24 385.655 1327.26 385.318 1327.28 384.981C1327.29 384.731 1327.31 384.481 1327.33 384.231C1327.35 383.871 1327.37 383.511 1327.4 383.151C1327.41 382.969 1327.42 382.786 1327.43 382.604C1327.45 382.302 1327.48 382 1327.5 381.698C1327.52 381.435 1327.54 381.173 1327.56 380.91C1327.58 380.645 1327.61 380.38 1327.63 380.115C1327.65 379.852 1327.67 379.588 1327.7 379.325C1327.72 379.038 1327.75 378.751 1327.78 378.465C1327.8 378.237 1327.82 378.009 1327.84 377.781C1327.88 377.443 1327.91 377.105 1327.95 376.767C1327.97 376.579 1327.99 376.391 1328.01 376.204C1328.05 375.802 1328.1 375.4 1328.14 374.999C1328.16 374.885 1328.17 374.771 1328.18 374.657C1328.24 374.167 1328.3 373.677 1328.36 373.188C1328.37 373.119 1328.38 373.049 1328.39 372.979C1328.44 372.587 1328.49 372.195 1328.54 371.803C1328.56 371.666 1328.58 371.529 1328.6 371.392C1329.78 362.763 1331.62 354.341 1334.04 346.174C1334.07 346.09 1334.09 346.006 1334.12 345.922C1334.24 345.497 1334.37 345.074 1334.5 344.65C1334.53 344.558 1334.56 344.465 1334.59 344.373C1339.31 329.103 1346.11 314.746 1354.67 301.637ZM1498 224C1592.44 224 1669 300.489 1669 394.843V469H1619.2V401.883C1619.2 334.747 1564.73 280.322 1497.53 280.322C1475.32 280.322 1455.87 285.501 1439.8 294.859C1429.04 279.337 1415.85 265.629 1400.77 254.286C1428.38 235.189 1461.88 224 1498 224Z" fill="#E9B82D"/>
<circle cx="1498" cy="127" r="60" fill="#E9B82D"/>
<circle cx="1295" cy="127" r="60" fill="#E9B82D"/>
<path d="M758.498 840V561.212H863.043C884.461 561.212 902.429 565.205 916.95 573.191C931.561 581.177 942.587 592.158 950.029 606.134C957.561 620.019 961.327 635.809 961.327 653.506C961.327 671.384 957.561 687.265 950.029 701.15C942.496 715.035 931.379 725.971 916.677 733.957C901.976 741.852 883.871 745.8 862.363 745.8H793.074V704.281H855.556C868.08 704.281 878.335 702.103 886.321 697.747C894.307 693.391 900.206 687.402 904.018 679.778C907.92 672.155 909.871 663.398 909.871 653.506C909.871 643.614 907.92 634.902 904.018 627.369C900.206 619.837 894.262 613.984 886.185 609.809C878.199 605.544 867.899 603.411 855.284 603.411H809.001V840H758.498ZM1059.44 844.22C1046.19 844.22 1034.26 841.86 1023.64 837.141C1013.11 832.332 1004.76 825.253 998.592 815.905C992.512 806.558 989.471 795.033 989.471 781.329C989.471 769.532 991.649 759.776 996.005 752.062C1000.36 744.348 1006.31 738.177 1013.84 733.549C1021.37 728.92 1029.86 725.426 1039.29 723.067C1048.82 720.617 1058.67 718.847 1068.83 717.758C1081.08 716.487 1091.02 715.353 1098.65 714.355C1106.27 713.266 1111.8 711.632 1115.25 709.454C1118.79 707.185 1120.56 703.691 1120.56 698.972V698.156C1120.56 687.901 1117.52 679.96 1111.44 674.333C1105.36 668.707 1096.6 665.893 1085.17 665.893C1073.1 665.893 1063.52 668.525 1056.45 673.789C1049.46 679.052 1044.74 685.269 1042.29 692.438L996.278 685.904C999.908 673.199 1005.9 662.581 1014.25 654.05C1022.6 645.429 1032.81 638.986 1044.88 634.72C1056.95 630.364 1070.29 628.186 1084.9 628.186C1094.97 628.186 1105 629.366 1114.98 631.726C1124.96 634.085 1134.08 637.987 1142.34 643.432C1150.6 648.787 1157.23 656.092 1162.22 665.349C1167.3 674.606 1169.84 686.176 1169.84 700.061V840H1122.47V811.277H1120.83C1117.84 817.085 1113.62 822.53 1108.17 827.612C1102.82 832.604 1096.06 836.642 1087.89 839.728C1079.81 842.723 1070.33 844.22 1059.44 844.22ZM1072.24 808.01C1082.13 808.01 1090.7 806.059 1097.96 802.157C1105.22 798.164 1110.81 792.9 1114.71 786.366C1118.7 779.832 1120.7 772.708 1120.7 764.994V740.355C1119.16 741.625 1116.52 742.805 1112.8 743.894C1109.17 744.983 1105.09 745.936 1100.55 746.753C1096.01 747.57 1091.52 748.296 1087.07 748.931C1082.63 749.566 1078.77 750.111 1075.5 750.564C1068.15 751.563 1061.57 753.196 1055.77 755.465C1049.96 757.734 1045.37 760.91 1042.02 764.994C1038.66 768.987 1036.98 774.16 1036.98 780.512C1036.98 789.588 1040.29 796.439 1046.92 801.068C1053.54 805.696 1061.98 808.01 1072.24 808.01ZM1219.39 840V630.909H1268.67V840H1219.39ZM1244.17 601.233C1236.36 601.233 1229.64 598.647 1224.02 593.474C1218.39 588.21 1215.58 581.903 1215.58 574.552C1215.58 567.111 1218.39 560.803 1224.02 555.63C1229.64 550.367 1236.36 547.735 1244.17 547.735C1252.06 547.735 1258.78 550.367 1264.31 555.63C1269.94 560.803 1272.75 567.111 1272.75 574.552C1272.75 581.903 1269.94 588.21 1264.31 593.474C1258.78 598.647 1252.06 601.233 1244.17 601.233ZM1319.34 840V630.909H1367.12V665.757H1369.3C1373.11 653.687 1379.65 644.385 1388.9 637.851C1398.25 631.226 1408.91 627.914 1420.89 627.914C1423.61 627.914 1426.65 628.05 1430.01 628.322C1433.46 628.504 1436.32 628.821 1438.59 629.275V674.606C1436.5 673.88 1433.19 673.244 1428.65 672.7C1424.2 672.065 1419.89 671.747 1415.72 671.747C1406.73 671.747 1398.66 673.698 1391.49 677.6C1384.41 681.412 1378.83 686.721 1374.75 693.527C1370.66 700.334 1368.62 708.184 1368.62 717.077V840H1319.34ZM1744.33 561.212H1794.83V743.35C1794.83 763.315 1790.11 780.875 1780.68 796.031C1771.33 811.186 1758.17 823.029 1741.2 831.56C1724.23 840 1704.4 844.22 1681.71 844.22C1658.93 844.22 1639.06 840 1622.09 831.56C1605.12 823.029 1591.96 811.186 1582.61 796.031C1573.26 780.875 1568.59 763.315 1568.59 743.35V561.212H1619.09V739.13C1619.09 750.746 1621.63 761.092 1626.72 770.167C1631.89 779.242 1639.15 786.366 1648.5 791.539C1657.84 796.621 1668.92 799.162 1681.71 799.162C1694.51 799.162 1705.58 796.621 1714.93 791.539C1724.36 786.366 1731.63 779.242 1736.71 770.167C1741.79 761.092 1744.33 750.746 1744.33 739.13V561.212ZM1847.55 918.409V630.909H1896.01V665.485H1898.87C1901.41 660.403 1904.99 655.003 1909.62 649.286C1914.25 643.478 1920.51 638.532 1928.41 634.448C1936.3 630.273 1946.38 628.186 1958.63 628.186C1974.78 628.186 1989.35 632.315 2002.33 640.574C2015.39 648.741 2025.74 660.857 2033.36 676.92C2041.08 692.892 2044.93 712.494 2044.93 735.727C2044.93 758.687 2041.17 778.198 2033.63 794.261C2026.1 810.324 2015.85 822.576 2002.87 831.016C1989.89 839.455 1975.19 843.675 1958.76 843.675C1946.79 843.675 1936.85 841.679 1928.95 837.686C1921.06 833.693 1914.7 828.883 1909.89 823.256C1905.18 817.539 1901.5 812.139 1898.87 807.057H1896.83V918.409H1847.55ZM1895.87 735.454C1895.87 748.976 1897.78 760.819 1901.59 770.984C1905.49 781.148 1911.07 789.088 1918.33 794.806C1925.69 800.432 1934.58 803.246 1945.02 803.246C1955.91 803.246 1965.03 800.342 1972.38 794.534C1979.73 788.635 1985.26 780.603 1988.98 770.439C1992.8 760.184 1994.7 748.523 1994.7 735.454C1994.7 722.477 1992.84 710.951 1989.12 700.878C1985.4 690.805 1979.86 682.909 1972.51 677.192C1965.16 671.475 1956 668.616 1945.02 668.616C1934.49 668.616 1925.55 671.384 1918.2 676.92C1910.85 682.456 1905.27 690.215 1901.45 700.197C1897.73 710.18 1895.87 721.932 1895.87 735.454Z" fill="white"/>
</svg>
