<svg width="2793" height="2793" viewBox="0 0 2793 2793" fill="none" xmlns="http://www.w3.org/2000/svg">
<path d="M1106.15 544.901L999.707 650.936C893.234 757.002 892.904 929.298 998.97 1035.77C1105.04 1142.24 1277.33 1142.57 1383.81 1036.51L1490.25 930.473L1567.36 1007.89L1449.76 1125.04C1300.12 1274.11 1057.97 1273.64 908.907 1124.01C759.841 974.37 760.305 732.223 909.943 583.157L1027.55 466L1106.15 544.901Z" fill="#E9B82D"/>
<path d="M1175.24 935.813L1281.68 829.778C1388.15 723.712 1560.45 724.042 1666.51 830.515C1772.58 936.988 1772.25 1109.28 1665.78 1215.35L1559.33 1321.39L1636.45 1398.8L1754.06 1281.64C1903.7 1132.57 1904.16 890.428 1755.09 740.79C1606.03 591.153 1363.88 590.689 1214.24 739.755L1096.64 856.912L1175.24 935.813Z" fill="#E9B82D"/>
<path d="M120.016 2142V1584.21H329.186C372.037 1584.21 407.988 1592.2 437.039 1608.18C466.272 1624.16 488.333 1646.13 503.222 1674.09C518.292 1701.87 525.827 1733.47 525.827 1768.87C525.827 1804.64 518.292 1836.42 503.222 1864.2C488.151 1891.98 465.909 1913.86 436.494 1929.83C407.08 1945.63 370.856 1953.53 327.824 1953.53H189.195V1870.46H314.206C339.263 1870.46 359.781 1866.1 375.759 1857.39C391.737 1848.67 403.539 1836.69 411.165 1821.44C418.973 1806.18 422.876 1788.66 422.876 1768.87C422.876 1749.08 418.973 1731.65 411.165 1716.58C403.539 1701.51 391.646 1689.8 375.486 1681.45C359.508 1672.91 338.9 1668.64 313.661 1668.64H221.06V2142H120.016ZM722.128 2150.44C695.619 2150.44 671.742 2145.72 650.498 2136.28C629.436 2126.66 612.732 2112.49 600.385 2093.79C588.22 2075.09 582.137 2052.03 582.137 2024.61C582.137 2001.01 586.495 1981.49 595.21 1966.06C603.925 1950.62 615.818 1938.28 630.889 1929.02C645.959 1919.76 662.936 1912.77 681.819 1908.05C700.884 1903.14 720.585 1899.6 740.921 1897.42C765.433 1894.88 785.315 1892.61 800.567 1890.61C815.819 1888.44 826.895 1885.17 833.794 1880.81C840.876 1876.27 844.416 1869.28 844.416 1859.84V1858.2C844.416 1837.69 838.334 1821.8 826.168 1810.54C814.003 1799.28 796.482 1793.66 773.604 1793.66C749.455 1793.66 730.299 1798.92 716.136 1809.45C702.155 1819.98 692.714 1832.42 687.811 1846.77L595.755 1833.69C603.018 1808.27 615.001 1787.03 631.706 1769.96C648.41 1752.71 668.837 1739.82 692.986 1731.29C717.135 1722.57 743.826 1718.21 773.059 1718.21C793.213 1718.21 813.277 1720.57 833.25 1725.29C853.222 1730.02 871.47 1737.82 887.993 1748.72C904.516 1759.43 917.771 1774.05 927.757 1792.57C937.925 1811.09 943.009 1834.24 943.009 1862.02V2142H848.229V2084.53H844.961C838.969 2096.15 830.526 2107.05 819.632 2117.22C808.919 2127.2 795.392 2135.28 779.051 2141.46C762.891 2147.45 743.917 2150.44 722.128 2150.44ZM747.73 2078C767.521 2078 784.679 2074.09 799.205 2066.28C813.731 2058.3 824.897 2047.76 832.705 2034.69C840.694 2021.62 844.689 2007.37 844.689 1991.93V1942.64C841.602 1945.18 836.336 1947.54 828.892 1949.72C821.629 1951.9 813.458 1953.8 804.38 1955.44C795.301 1957.07 786.314 1958.52 777.417 1959.79C768.52 1961.06 760.803 1962.15 754.266 1963.06C739.559 1965.06 726.395 1968.33 714.775 1972.87C703.154 1977.41 693.985 1983.76 687.267 1991.93C680.548 1999.92 677.189 2010.27 677.189 2022.98C677.189 2041.14 683.817 2054.85 697.071 2064.11C710.326 2073.37 727.212 2078 747.73 2078ZM1042.15 2142V1723.66H1140.74V2142H1042.15ZM1091.72 1664.29C1076.1 1664.29 1062.66 1659.11 1051.41 1648.76C1040.15 1638.23 1034.52 1625.61 1034.52 1610.9C1034.52 1596.02 1040.15 1583.4 1051.41 1573.05C1062.66 1562.52 1076.1 1557.25 1091.72 1557.25C1107.51 1557.25 1120.95 1562.52 1132.02 1573.05C1143.28 1583.4 1148.91 1596.02 1148.91 1610.9C1148.91 1625.61 1143.28 1638.23 1132.02 1648.76C1120.95 1659.11 1107.51 1664.29 1091.72 1664.29ZM1242.12 2142V1723.66H1337.72V1793.38H1342.08C1349.71 1769.23 1362.78 1750.62 1381.3 1737.55C1400 1724.3 1421.34 1717.67 1445.3 1717.67C1450.75 1717.67 1456.83 1717.94 1463.55 1718.49C1470.45 1718.85 1476.17 1719.48 1480.71 1720.39V1811.09C1476.53 1809.63 1469.91 1808.36 1460.83 1807.27C1451.93 1806 1443.31 1805.37 1434.95 1805.37C1416.98 1805.37 1400.82 1809.27 1386.47 1817.08C1372.31 1824.7 1361.14 1835.33 1352.97 1848.94C1344.8 1862.56 1340.72 1878.27 1340.72 1896.06V2142H1242.12ZM2092.42 1584.21H2193.47V1948.63C2193.47 1988.57 2184.02 2023.71 2165.14 2054.03C2146.44 2084.35 2120.11 2108.05 2086.16 2125.11C2052.2 2142 2012.53 2150.44 1967.14 2150.44C1921.56 2150.44 1881.8 2142 1847.85 2125.11C1813.89 2108.05 1787.56 2084.35 1768.86 2054.03C1750.16 2023.71 1740.81 1988.57 1740.81 1948.63V1584.21H1841.85V1940.18C1841.85 1963.42 1846.94 1984.12 1857.11 2002.28C1867.46 2020.44 1881.98 2034.69 1900.68 2045.04C1919.38 2055.21 1941.54 2060.29 1967.14 2060.29C1992.74 2060.29 2014.89 2055.21 2033.59 2045.04C2052.48 2034.69 2067 2020.44 2077.17 2002.28C2087.34 1984.12 2092.42 1963.42 2092.42 1940.18V1584.21ZM2298.94 2298.88V1723.66H2395.9V1792.84H2401.61C2406.7 1782.67 2413.87 1771.87 2423.13 1760.43C2432.39 1748.81 2444.92 1738.91 2460.72 1730.74C2476.51 1722.39 2496.67 1718.21 2521.18 1718.21C2553.5 1718.21 2582.64 1726.47 2608.61 1743C2634.75 1759.34 2655.45 1783.58 2670.7 1815.72C2686.14 1847.67 2693.85 1886.89 2693.85 1933.37C2693.85 1979.31 2686.32 2018.35 2671.25 2050.49C2656.18 2082.63 2635.66 2107.14 2609.69 2124.02C2583.73 2140.91 2554.32 2149.35 2521.45 2149.35C2497.48 2149.35 2477.6 2145.36 2461.81 2137.37C2446.01 2129.38 2433.3 2119.76 2423.68 2108.5C2414.23 2097.06 2406.88 2086.26 2401.61 2076.09H2397.53V2298.88H2298.94ZM2395.62 1932.83C2395.62 1959.88 2399.44 1983.58 2407.06 2003.92C2414.87 2024.25 2426.04 2040.14 2440.56 2051.58C2455.27 2062.84 2473.06 2068.46 2493.94 2068.46C2515.73 2068.46 2533.98 2062.65 2548.69 2051.03C2563.39 2039.23 2574.47 2023.16 2581.91 2002.83C2589.54 1982.31 2593.35 1958.98 2593.35 1932.83C2593.35 1906.87 2589.63 1883.81 2582.19 1863.65C2574.74 1843.5 2563.67 1827.7 2548.96 1816.26C2534.25 1804.82 2515.91 1799.1 2493.94 1799.1C2472.88 1799.1 2455 1804.64 2440.29 1815.72C2425.58 1826.79 2414.42 1842.32 2406.79 1862.29C2399.34 1882.26 2395.62 1905.78 2395.62 1932.83Z" fill="white"/>
</svg>
