<svg width="2793" height="1000" viewBox="0 0 2793 1000" fill="none" xmlns="http://www.w3.org/2000/svg">
<path d="M575.888 298.855L520.773 353.759C465.642 408.68 465.471 497.895 520.392 553.026C575.312 608.157 664.527 608.328 719.658 553.408L774.774 498.503L814.704 538.587L753.808 599.251C676.326 676.436 550.943 676.196 473.757 598.715C396.571 521.233 396.811 395.85 474.293 318.664L535.19 258L575.888 298.855Z" fill="#E9B82D"/>
<path d="M611.662 501.268L666.777 446.363C721.908 391.443 811.123 391.614 866.044 446.745C920.964 501.876 920.794 591.091 865.662 646.012L810.547 700.916L850.478 741L911.374 680.336C988.856 603.151 989.096 477.768 911.91 400.286C834.725 322.804 709.342 322.564 631.86 399.75L570.963 460.413L611.662 501.268Z" fill="#E9B82D"/>
<path d="M1155.5 629V350.212H1260.04C1281.46 350.212 1299.43 354.205 1313.95 362.191C1328.56 370.177 1339.59 381.158 1347.03 395.134C1354.56 409.019 1358.33 424.809 1358.33 442.506C1358.33 460.384 1354.56 476.265 1347.03 490.15C1339.5 504.035 1328.38 514.971 1313.68 522.957C1298.98 530.852 1280.87 534.8 1259.36 534.8H1190.07V493.281H1252.56C1265.08 493.281 1275.33 491.103 1283.32 486.747C1291.31 482.391 1297.21 476.402 1301.02 468.778C1304.92 461.155 1306.87 452.398 1306.87 442.506C1306.87 432.614 1304.92 423.902 1301.02 416.369C1297.21 408.837 1291.26 402.984 1283.18 398.809C1275.2 394.544 1264.9 392.411 1252.28 392.411H1206V629H1155.5ZM1456.44 633.22C1443.19 633.22 1431.26 630.86 1420.64 626.141C1410.11 621.332 1401.76 614.253 1395.59 604.905C1389.51 595.558 1386.47 584.033 1386.47 570.329C1386.47 558.532 1388.65 548.776 1393.01 541.062C1397.36 533.348 1403.31 527.177 1410.84 522.549C1418.37 517.92 1426.86 514.426 1436.29 512.067C1445.82 509.617 1455.67 507.847 1465.83 506.758C1478.08 505.487 1488.02 504.353 1495.65 503.355C1503.27 502.266 1508.8 500.632 1512.25 498.454C1515.79 496.185 1517.56 492.691 1517.56 487.972V487.156C1517.56 476.901 1514.52 468.96 1508.44 463.333C1502.36 457.707 1493.6 454.893 1482.17 454.893C1470.1 454.893 1460.52 457.525 1453.45 462.789C1446.46 468.052 1441.74 474.269 1439.29 481.438L1393.28 474.904C1396.91 462.199 1402.9 451.581 1411.25 443.05C1419.6 434.429 1429.81 427.986 1441.88 423.72C1453.95 419.364 1467.29 417.186 1481.9 417.186C1491.97 417.186 1502 418.366 1511.98 420.726C1521.96 423.085 1531.08 426.987 1539.34 432.432C1547.6 437.787 1554.23 445.092 1559.22 454.349C1564.3 463.606 1566.84 475.176 1566.84 489.061V629H1519.47V600.277H1517.83C1514.84 606.085 1510.62 611.53 1505.17 616.612C1499.82 621.604 1493.06 625.642 1484.89 628.728C1476.81 631.723 1467.33 633.22 1456.44 633.22ZM1469.24 597.01C1479.13 597.01 1487.7 595.059 1494.96 591.157C1502.22 587.164 1507.81 581.9 1511.71 575.366C1515.7 568.832 1517.7 561.708 1517.7 553.994V529.355C1516.16 530.625 1513.52 531.805 1509.8 532.894C1506.17 533.983 1502.09 534.936 1497.55 535.753C1493.01 536.57 1488.52 537.296 1484.07 537.931C1479.63 538.566 1475.77 539.111 1472.5 539.564C1465.15 540.563 1458.57 542.196 1452.77 544.465C1446.96 546.734 1442.37 549.91 1439.02 553.994C1435.66 557.987 1433.98 563.16 1433.98 569.512C1433.98 578.588 1437.29 585.439 1443.92 590.068C1450.54 594.696 1458.98 597.01 1469.24 597.01ZM1616.39 629V419.909H1665.67V629H1616.39ZM1641.17 390.233C1633.36 390.233 1626.64 387.647 1621.02 382.474C1615.39 377.21 1612.58 370.903 1612.58 363.552C1612.58 356.111 1615.39 349.803 1621.02 344.63C1626.64 339.367 1633.36 336.735 1641.17 336.735C1649.06 336.735 1655.78 339.367 1661.31 344.63C1666.94 349.803 1669.75 356.111 1669.75 363.552C1669.75 370.903 1666.94 377.21 1661.31 382.474C1655.78 387.647 1649.06 390.233 1641.17 390.233ZM1716.34 629V419.909H1764.12V454.757H1766.3C1770.11 442.687 1776.65 433.385 1785.9 426.851C1795.25 420.226 1805.91 416.914 1817.89 416.914C1820.61 416.914 1823.65 417.05 1827.01 417.322C1830.46 417.504 1833.32 417.821 1835.59 418.275V463.606C1833.5 462.88 1830.19 462.244 1825.65 461.7C1821.2 461.065 1816.89 460.747 1812.72 460.747C1803.73 460.747 1795.66 462.698 1788.49 466.6C1781.41 470.412 1775.83 475.721 1771.75 482.527C1767.66 489.334 1765.62 497.184 1765.62 506.077V629H1716.34ZM2141.33 350.212H2191.83V532.35C2191.83 552.315 2187.11 569.875 2177.68 585.031C2168.33 600.186 2155.17 612.029 2138.2 620.56C2121.23 629 2101.4 633.22 2078.71 633.22C2055.93 633.22 2036.06 629 2019.09 620.56C2002.12 612.029 1988.96 600.186 1979.61 585.031C1970.26 569.875 1965.59 552.315 1965.59 532.35V350.212H2016.09V528.13C2016.09 539.746 2018.63 550.092 2023.72 559.167C2028.89 568.242 2036.15 575.366 2045.5 580.539C2054.84 585.621 2065.92 588.162 2078.71 588.162C2091.51 588.162 2102.58 585.621 2111.93 580.539C2121.36 575.366 2128.63 568.242 2133.71 559.167C2138.79 550.092 2141.33 539.746 2141.33 528.13V350.212ZM2244.55 707.409V419.909H2293.01V454.485H2295.87C2298.41 449.403 2301.99 444.003 2306.62 438.286C2311.25 432.478 2317.51 427.532 2325.41 423.448C2333.3 419.273 2343.38 417.186 2355.63 417.186C2371.78 417.186 2386.35 421.315 2399.33 429.574C2412.39 437.741 2422.74 449.857 2430.36 465.92C2438.08 481.892 2441.93 501.494 2441.93 524.727C2441.93 547.687 2438.17 567.198 2430.63 583.261C2423.1 599.324 2412.85 611.576 2399.87 620.016C2386.89 628.455 2372.19 632.675 2355.76 632.675C2343.79 632.675 2333.85 630.679 2325.95 626.686C2318.06 622.693 2311.7 617.883 2306.89 612.256C2302.18 606.539 2298.5 601.139 2295.87 596.057H2293.83V707.409H2244.55ZM2292.87 524.454C2292.87 537.976 2294.78 549.819 2298.59 559.984C2302.49 570.148 2308.07 578.088 2315.33 583.806C2322.69 589.432 2331.58 592.246 2342.02 592.246C2352.91 592.246 2362.03 589.342 2369.38 583.534C2376.73 577.635 2382.26 569.603 2385.98 559.439C2389.8 549.184 2391.7 537.523 2391.7 524.454C2391.7 511.477 2389.84 499.951 2386.12 489.878C2382.4 479.805 2376.86 471.909 2369.51 466.192C2362.16 460.475 2353 457.616 2342.02 457.616C2331.49 457.616 2322.55 460.384 2315.2 465.92C2307.85 471.456 2302.27 479.215 2298.45 489.197C2294.73 499.18 2292.87 510.932 2292.87 524.454Z" fill="white"/>
</svg>
